<svg width="149" height="149" viewBox="0 0 149 149" fill="none" xmlns="http://www.w3.org/2000/svg">
<rect width="149" height="149" rx="74.5" fill="#A5B706"/>
<path d="M67 39.5C62.8587 39.5 59.5 42.8558 59.5 46.9988V49.5H42C37.8579 49.5 34.5 52.8579 34.5 57V63.9207L72.5675 74.072C73.8337 74.4097 75.1663 74.4097 76.4325 74.072L114.5 63.9207V57C114.5 52.8579 111.142 49.5 107 49.5H89.5V46.9988C89.5 42.8558 86.1413 39.5 82 39.5H67ZM67 44.5H82C83.3815 44.5 84.5 45.6232 84.5 47.0031V49.5H64.5V46.9988C64.5 45.6189 65.6185 44.5 67 44.5Z" fill="#FFFFFD"/>
<path d="M34.5 97C34.5 101.142 37.8579 104.5 42 104.5H107C111.142 104.5 114.5 101.142 114.5 97V68.746L75.1442 79.2409C74.7221 79.3534 74.2779 79.3534 73.8558 79.2409L34.5 68.746V97Z" fill="#FFFFFD"/>
</svg>
