<svg width="18" height="18" viewBox="0 0 18 18" fill="none" xmlns="http://www.w3.org/2000/svg">
<path d="M11.7257 4.3972L5.5594 10.6895C5.28447 10.9644 5.13002 11.3373 5.13002 11.7261C5.13002 12.1149 5.28447 12.4878 5.5594 12.7627C5.83433 13.0377 6.20722 13.1921 6.59602 13.1921C6.98483 13.1921 7.35772 13.0377 7.63265 12.7627L13.7989 6.47045C14.3487 5.92068 14.6575 5.17505 14.6575 4.39756C14.6575 3.62008 14.3487 2.87444 13.7989 2.32468C13.2491 1.77492 12.5035 1.46606 11.726 1.46606C10.9485 1.46606 10.2029 1.77492 9.65313 2.32468L3.51253 8.59133C3.09876 8.99842 2.76969 9.4834 2.54428 10.0183C2.31888 10.5532 2.20162 11.1274 2.19926 11.7079C2.19689 12.2883 2.30948 12.8635 2.53051 13.4002C2.75155 13.937 3.07667 14.4246 3.48711 14.835C3.89755 15.2455 4.3852 15.5706 4.92192 15.7916C5.45864 16.0127 6.03381 16.1253 6.61426 16.1229C7.19471 16.1205 7.76894 16.0033 8.30385 15.7779C8.83875 15.5525 9.32373 15.2234 9.73082 14.8096L15.8714 8.54296" stroke="#0A0A0A" stroke-width="1.46571" stroke-linecap="round" stroke-linejoin="round"/>
</svg>
