<svg width="719" height="251" viewBox="0 0 719 251" fill="none" xmlns="http://www.w3.org/2000/svg">
<path d="M32.718 47.7121C34.4959 45.8157 37.506 45.8157 39.2839 47.7121L67.8403 78.1723C70.5347 81.0463 68.4969 85.75 64.5574 85.75H51.7509V90.25C51.7509 92.7353 49.7362 94.75 47.2509 94.75H24.7509C22.2657 94.75 20.2509 92.7353 20.2509 90.25V85.75H7.44447C3.50499 85.75 1.46718 81.0463 4.16155 78.1723L32.718 47.7121Z" fill="#353CA4"/>
<path d="M20.2509 103.75C20.2509 101.265 22.2657 99.25 24.7509 99.25H47.2509C49.7362 99.25 51.7509 101.265 51.7509 103.75V108.25C51.7509 110.735 49.7362 112.75 47.2509 112.75H24.7509C22.2657 112.75 20.2509 110.735 20.2509 108.25V103.75Z" fill="#353CA4"/>
<path d="M21.6003 247V117.469H50.4054V247H21.6003Z" fill="#353CA4"/>
<path d="M79.9902 248V118.469H100.172L108.795 144.338V248H79.9902ZM169.341 248L93.0167 150.21L100.172 118.469L176.496 216.259L169.341 248ZM169.341 248L161.635 222.13V118.469H190.44V248H169.341ZM234.892 248V222.681H266.999C274.828 222.681 281.677 221.152 287.548 218.094C293.419 214.914 297.945 210.327 301.125 204.334C304.305 198.34 305.895 191.246 305.895 183.051C305.895 174.856 304.244 167.823 300.942 161.952C297.762 156.081 293.236 151.555 287.365 148.375C281.616 145.195 274.828 143.605 266.999 143.605H233.975V118.469H267.366C277.152 118.469 286.142 120.059 294.337 123.239C302.654 126.297 309.871 130.762 315.986 136.633C322.224 142.381 326.995 149.231 330.297 157.182C333.722 165.01 335.434 173.694 335.434 183.234C335.434 192.653 333.722 201.337 330.297 209.287C326.995 217.238 322.286 224.088 316.17 229.836C310.054 235.585 302.838 240.05 294.52 243.23C286.325 246.41 277.396 248 267.733 248H234.892ZM215.444 248V118.469H244.249V248H215.444ZM405.87 250.018C395.229 250.018 385.811 247.755 377.616 243.23C369.543 238.704 363.183 232.466 358.535 224.516C354.009 216.443 351.746 207.269 351.746 196.995V118.469H380.735V198.646C380.735 203.783 381.836 208.248 384.037 212.04C386.239 215.831 389.236 218.767 393.027 220.846C396.941 222.803 401.222 223.782 405.87 223.782C410.763 223.782 415.044 222.803 418.713 220.846C422.383 218.767 425.257 215.892 427.337 212.223C429.538 208.431 430.639 203.967 430.639 198.83V118.469H459.628V197.178C459.628 207.453 457.365 216.565 452.839 224.516C448.313 232.466 442.014 238.704 433.942 243.23C425.869 247.755 416.512 250.018 405.87 250.018ZM544.052 250.018C534.389 250.018 525.399 248.367 517.081 245.064C508.886 241.64 501.67 236.869 495.432 230.754C489.316 224.638 484.546 217.544 481.121 209.471C477.696 201.276 475.984 192.469 475.984 183.051C475.984 173.633 477.696 164.887 481.121 156.815C484.546 148.619 489.316 141.525 495.432 135.532C501.547 129.538 508.703 124.89 516.898 121.588C525.215 118.163 534.205 116.451 543.868 116.451C554.143 116.451 563.255 118.102 571.206 121.405C579.278 124.707 586.311 129.233 592.305 134.981L573.04 154.429C569.615 150.76 565.457 147.886 560.564 145.806C555.794 143.727 550.229 142.687 543.868 142.687C538.242 142.687 533.043 143.666 528.273 145.623C523.625 147.458 519.589 150.148 516.164 153.696C512.862 157.243 510.232 161.524 508.275 166.539C506.44 171.553 505.523 177.058 505.523 183.051C505.523 189.167 506.44 194.732 508.275 199.747C510.232 204.762 512.862 209.043 516.164 212.59C519.589 216.137 523.625 218.889 528.273 220.846C533.043 222.803 538.242 223.782 543.868 223.782C550.473 223.782 556.222 222.742 561.115 220.663C566.007 218.583 570.227 215.709 573.774 212.04L593.222 231.488C586.984 237.236 579.829 241.762 571.756 245.064C563.806 248.367 554.571 250.018 544.052 250.018ZM609.084 248V118.469H637.889V248H609.084ZM631.1 248V223.048H702.104V248H631.1ZM631.1 193.876V169.841H695.683V193.876H631.1ZM631.1 143.238V118.469H701.187V143.238H631.1Z" fill="#353CA4"/>
</svg>
