<svg width="16" height="16" viewBox="0 0 16 16" fill="none" xmlns="http://www.w3.org/2000/svg">
<g clip-path="url(#clip0_4036_825)">
<path d="M12.0087 -3.05176e-05C13.1132 -3.05176e-05 14.0087 0.895408 14.0087 1.99997V15.5C14.0087 15.6764 13.9153 15.8396 13.7635 15.9297C13.6118 16.0196 13.4243 16.0229 13.2694 15.9384L8.00867 13.0693L2.74792 15.9384C2.59303 16.0229 2.40552 16.0197 2.25378 15.9297C2.10204 15.8396 2.00867 15.6764 2.00867 15.5V1.99997C2.00868 0.895441 2.90415 2.20511e-05 4.00867 -3.05176e-05H12.0087ZM8.16785 4.0986C8.10252 3.96711 7.91477 3.96706 7.84949 4.0986L7.21472 5.38571C7.18885 5.43802 7.13867 5.47393 7.08093 5.48239L5.66101 5.68942C5.51541 5.7107 5.45704 5.88938 5.56238 5.99216L6.58972 6.99313C6.63155 7.03391 6.65031 7.09278 6.6405 7.15036L6.39832 8.56442C6.37343 8.70952 6.5258 8.82028 6.65613 8.75192L7.92566 8.08395C7.97743 8.05674 8.03991 8.05674 8.09167 8.08395L9.36121 8.75192C9.49157 8.82045 9.64392 8.70958 9.61902 8.56442L9.37683 7.15036C9.36704 7.09279 9.38579 7.0339 9.42761 6.99313L10.455 5.99216C10.5604 5.88935 10.5021 5.7106 10.3563 5.68942L8.9364 5.48239C8.87872 5.47387 8.82844 5.438 8.80261 5.38571L8.16785 4.0986Z" fill="#ADB2F5"/>
</g>
<defs>
<clipPath id="clip0_4036_825">
<rect width="16" height="16" fill="white"/>
</clipPath>
</defs>
</svg>
