<svg width="40" height="40" viewBox="0 0 40 40" fill="none" xmlns="http://www.w3.org/2000/svg">
<rect width="39.69" height="39.69" rx="4.86" fill="#353CA4"/>
<path d="M25.892 13.5154C25.9521 13.365 25.9169 13.1932 25.8023 13.0786C25.6878 12.964 25.516 12.9288 25.3655 12.9889L13.5824 17.7022L13.5812 17.7027L13.2155 17.8489C13.0744 17.9054 12.9768 18.036 12.9627 18.1873C12.9486 18.3386 13.0203 18.4851 13.1485 18.5667L13.4803 18.7778L13.4818 18.7788L17.5276 21.3533L20.1021 25.3991L20.1034 25.401L20.3143 25.7324C20.3958 25.8606 20.5423 25.9323 20.6936 25.9182C20.8449 25.9041 20.9755 25.8065 21.032 25.6654L25.892 13.5154ZM24.4071 15.0465L18.337 21.1166L18.1626 20.8425C18.1308 20.7925 18.0884 20.7501 18.0384 20.7183L17.7643 20.5439L23.8343 14.4738L24.7889 14.092L24.4071 15.0465Z" fill="#F5F6FF"/>
</svg>
