<svg width="32" height="32" viewBox="0 0 32 32" fill="none" xmlns="http://www.w3.org/2000/svg">
<path d="M0 15.9961C0 7.1617 7.1617 0 15.9961 0C24.8305 0 31.9922 7.1617 31.9922 15.9961C31.9922 24.8305 24.8305 31.9922 15.9961 31.9922C7.1617 31.9922 0 24.8305 0 15.9961Z" fill="#ECECF0"/>
<path d="M20.6514 21.9946V20.6616C20.6514 19.9545 20.3705 19.2764 19.8705 18.7765C19.3705 18.2765 18.6924 17.9956 17.9854 17.9956H13.9863C13.2793 17.9956 12.6011 18.2765 12.1012 18.7765C11.6012 19.2764 11.3203 19.9545 11.3203 20.6616V21.9946" stroke="#2C313E" stroke-width="1.33301" stroke-linecap="round" stroke-linejoin="round"/>
<path d="M15.9863 15.3296C17.4587 15.3296 18.6523 14.136 18.6523 12.6636C18.6523 11.1912 17.4587 9.99756 15.9863 9.99756C14.5139 9.99756 13.3203 11.1912 13.3203 12.6636C13.3203 14.136 14.5139 15.3296 15.9863 15.3296Z" stroke="#2C313E" stroke-width="1.33301" stroke-linecap="round" stroke-linejoin="round"/>
</svg>
